<svg width="126" height="80" viewBox="0 0 126 80" fill="none" xmlns="http://www.w3.org/2000/svg">
<mask id="path-1-inside-1" fill="white">
<path d="M27.1902 45.7726L0 22.9412L26.9353 0C30.7059 0.268627 33.6843 2.72549 33.698 5.72549L33.7196 10.8314L110.269 10.6941C114.398 10.6725 117.773 13.9216 117.794 17.9627L117.845 27.4216C117.861 31.4569 114.529 34.7216 110.4 34.7431L33.851 34.8725L33.8765 39.9706C33.898 42.9686 30.9667 45.4569 27.1941 45.7726"/>
</mask>
<path d="M27.1902 45.7726L0 22.9412L26.9353 0C30.7059 0.268627 33.6843 2.72549 33.698 5.72549L33.7196 10.8314L110.269 10.6941C114.398 10.6725 117.773 13.9216 117.794 17.9627L117.845 27.4216C117.861 31.4569 114.529 34.7216 110.4 34.7431L33.851 34.8725L33.8765 39.9706C33.898 42.9686 30.9667 45.4569 27.1941 45.7726" fill="#405866"/>
<path d="M0 22.9412L-0.389044 22.4844L-0.92917 22.9444L-0.385832 23.4007L0 22.9412ZM26.9353 0L26.9779 -0.598483L26.7331 -0.615925L26.5462 -0.456777L26.9353 0ZM33.698 5.72549L34.298 5.72296L34.298 5.72275L33.698 5.72549ZM33.7196 10.8314L33.1196 10.8339L33.1221 11.4324L33.7207 11.4314L33.7196 10.8314ZM110.269 10.6941L110.27 11.2941L110.272 11.2941L110.269 10.6941ZM117.794 17.9627L117.194 17.9659L117.194 17.966L117.794 17.9627ZM117.845 27.4216L118.445 27.4192L118.445 27.4183L117.845 27.4216ZM110.4 34.7431L110.401 35.3431L110.403 35.3431L110.4 34.7431ZM33.851 34.8725L33.85 34.2725L33.248 34.2736L33.251 34.8755L33.851 34.8725ZM33.8765 39.9706L33.2765 39.9736L33.2765 39.9749L33.8765 39.9706ZM27.576 45.3131L0.385832 22.4817L-0.385832 23.4007L26.8044 46.232L27.576 45.3131ZM0.389044 23.398L27.3243 0.456777L26.5462 -0.456777L-0.389044 22.4844L0.389044 23.398ZM26.8927 0.598483C30.489 0.854697 33.0863 3.16415 33.098 5.72824L34.298 5.72275C34.2823 2.28683 30.9228 -0.317442 26.9779 -0.598483L26.8927 0.598483ZM33.098 5.72803L33.1196 10.8339L34.3196 10.8288L34.298 5.72296L33.098 5.72803ZM33.7207 11.4314L110.27 11.2941L110.268 10.0941L33.7185 10.2314L33.7207 11.4314ZM110.272 11.2941C114.084 11.2742 117.174 14.2702 117.194 17.9659L118.394 17.9595C118.371 13.5729 114.712 10.0709 110.266 10.0941L110.272 11.2941ZM117.194 17.966L117.245 27.4248L118.445 27.4183L118.394 17.9595L117.194 17.966ZM117.245 27.4239C117.259 31.113 114.211 34.1232 110.397 34.1431L110.403 35.3431C114.848 35.3199 118.462 31.8007 118.445 27.4192L117.245 27.4239ZM110.399 34.1431L33.85 34.2725L33.852 35.4725L110.401 35.3431L110.399 34.1431ZM33.251 34.8755L33.2765 39.9736L34.4765 39.9676L34.451 34.8695L33.251 34.8755ZM33.2765 39.9749C33.2949 42.5381 30.7416 44.8736 27.1441 45.1746L27.2441 46.3705C31.1918 46.0401 34.5012 43.3992 34.4765 39.9663L33.2765 39.9749Z" fill="black" fill-opacity="0.9" mask="url(#path-1-inside-1)"/>
<mask id="path-3-inside-2" fill="white">
<path d="M4.31567 51.0882H20.751C23.4921 51.0882 25.5941 51.7686 27.0588 53.1274C28.5274 54.4823 29.2627 56.1627 29.2627 58.1627C29.2627 59.8431 28.7372 61.2882 27.6902 62.4902C26.9941 63.2863 25.9745 63.9216 24.6274 64.3863C26.6706 64.8804 28.1725 65.7235 29.1353 66.9196C30.0961 68.1078 30.5784 69.6137 30.5784 71.4216C30.5784 72.8941 30.2353 74.2235 29.549 75.398C28.8787 76.5616 27.9083 77.5238 26.7392 78.1843C26.0019 78.6118 24.8902 78.9255 23.4059 79.1176C21.4255 79.3765 20.1157 79.5059 19.4647 79.5059H4.30782V51.0882H4.31567ZM13.1647 62.2372H16.9843C18.3529 62.2372 19.3078 62.002 19.8431 61.5294C20.3804 61.0588 20.649 60.3765 20.649 59.4863C20.649 58.6549 20.3804 58.0098 19.8431 57.5451C19.3098 57.0823 18.3725 56.851 17.0431 56.851H13.1647V62.2372V62.2372ZM13.1647 73.4H17.6431C19.1568 73.4 20.2196 73.1294 20.8412 72.5961C21.4608 72.0627 21.7725 71.3392 21.7725 70.4314C21.7725 69.5922 21.4666 68.9196 20.8529 68.4118C20.2392 67.9 19.1627 67.6451 17.6255 67.6451H13.1647V73.4"/>
</mask>
<path d="M4.31567 51.0882H20.751C23.4921 51.0882 25.5941 51.7686 27.0588 53.1274C28.5274 54.4823 29.2627 56.1627 29.2627 58.1627C29.2627 59.8431 28.7372 61.2882 27.6902 62.4902C26.9941 63.2863 25.9745 63.9216 24.6274 64.3863C26.6706 64.8804 28.1725 65.7235 29.1353 66.9196C30.0961 68.1078 30.5784 69.6137 30.5784 71.4216C30.5784 72.8941 30.2353 74.2235 29.549 75.398C28.8787 76.5616 27.9083 77.5238 26.7392 78.1843C26.0019 78.6118 24.8902 78.9255 23.4059 79.1176C21.4255 79.3765 20.1157 79.5059 19.4647 79.5059H4.30782V51.0882H4.31567ZM13.1647 62.2372H16.9843C18.3529 62.2372 19.3078 62.002 19.8431 61.5294C20.3804 61.0588 20.649 60.3765 20.649 59.4863C20.649 58.6549 20.3804 58.0098 19.8431 57.5451C19.3098 57.0823 18.3725 56.851 17.0431 56.851H13.1647V62.2372V62.2372ZM13.1647 73.4H17.6431C19.1568 73.4 20.2196 73.1294 20.8412 72.5961C21.4608 72.0627 21.7725 71.3392 21.7725 70.4314C21.7725 69.5922 21.4666 68.9196 20.8529 68.4118C20.2392 67.9 19.1627 67.6451 17.6255 67.6451H13.1647V73.4" fill="#405866"/>
<path d="M27.0588 53.1274L26.6507 53.5673L26.652 53.5684L27.0588 53.1274ZM27.6902 62.4902L28.1419 62.8851L28.1426 62.8843L27.6902 62.4902ZM24.6274 64.3863L24.4318 63.8191L22.4939 64.4876L24.4864 64.9695L24.6274 64.3863ZM29.1353 66.9196L28.6679 67.2958L28.6687 67.2969L29.1353 66.9196ZM29.549 75.398L29.0309 75.0953L29.0291 75.0985L29.549 75.398ZM26.7392 78.1843L26.4441 77.6619L26.4382 77.6652L26.7392 78.1843ZM23.4059 79.1176L23.3288 78.5226L23.3281 78.5227L23.4059 79.1176ZM4.30782 79.5059H3.70782V80.1059H4.30782V79.5059ZM4.30782 51.0882V50.4882H3.70782V51.0882H4.30782ZM19.8431 61.5294L19.4478 61.0781L19.446 61.0796L19.8431 61.5294ZM19.8431 57.5451L19.4499 57.9983L19.4506 57.9989L19.8431 57.5451ZM13.1647 56.851V56.251H12.5647V56.851H13.1647ZM20.8412 72.5961L21.2319 73.0514L21.2326 73.0508L20.8412 72.5961ZM20.8529 68.4118L20.4687 68.8726L20.4704 68.874L20.8529 68.4118ZM13.1647 67.6451V67.0451H12.5647V67.6451H13.1647ZM4.31567 51.6882H20.751V50.4882H4.31567V51.6882ZM20.751 51.6882C23.3974 51.6882 25.3325 52.3444 26.6507 53.5673L27.4669 52.6876C25.8557 51.1929 23.5868 50.4882 20.751 50.4882V51.6882ZM26.652 53.5684C27.9973 54.8096 28.6627 56.33 28.6627 58.1627H29.8627C29.8627 55.9955 29.0576 54.1551 27.4656 52.6864L26.652 53.5684ZM28.6627 58.1627C28.6627 59.7067 28.1843 61.0095 27.2378 62.0961L28.1426 62.8843C29.2902 61.5669 29.8627 59.9796 29.8627 58.1627H28.6627ZM27.2385 62.0952C26.6301 62.791 25.7111 63.3777 24.4318 63.8191L24.8231 64.9535C26.2379 64.4654 27.3581 63.7815 28.1419 62.8851L27.2385 62.0952ZM24.4864 64.9695C26.4481 65.4439 27.8141 66.2352 28.6679 67.2958L29.6027 66.5434C28.5309 65.2119 26.8931 64.3169 24.7685 63.8031L24.4864 64.9695ZM28.6687 67.2969C29.5279 68.3595 29.9784 69.7247 29.9784 71.4216H31.1784C31.1784 69.5028 30.6642 67.8562 29.6018 66.5423L28.6687 67.2969ZM29.9784 71.4216C29.9784 72.7973 29.6589 74.0206 29.031 75.0953L30.067 75.7007C30.8116 74.4265 31.1784 72.991 31.1784 71.4216H29.9784ZM29.0291 75.0985C28.4124 76.169 27.5197 77.0543 26.4441 77.6619L27.0343 78.7067C28.297 77.9934 29.345 76.9542 30.0689 75.6975L29.0291 75.0985ZM26.4382 77.6652C25.8026 78.0338 24.7833 78.3343 23.3288 78.5226L23.4829 79.7127C24.997 79.5167 26.2013 79.1897 27.0401 78.7034L26.4382 77.6652ZM23.3281 78.5227C21.3403 78.7825 20.0698 78.9059 19.4647 78.9059V80.1059C20.1615 80.1059 21.5107 79.9704 23.4836 79.7126L23.3281 78.5227ZM19.4647 78.9059H4.30782V80.1059H19.4647V78.9059ZM4.90782 79.5059V51.0882H3.70782V79.5059H4.90782ZM4.30782 51.6882H4.31567V50.4882H4.30782V51.6882ZM13.1647 62.8372H16.9843V61.6372H13.1647V62.8372ZM16.9843 62.8372C18.3814 62.8372 19.5311 62.6052 20.2402 61.9792L19.446 61.0796C19.0846 61.3987 18.3244 61.6372 16.9843 61.6372V62.8372ZM20.2385 61.9807C20.9371 61.3688 21.249 60.5029 21.249 59.4863H20.049C20.049 60.2501 19.8237 60.7488 19.4478 61.0781L20.2385 61.9807ZM21.249 59.4863C21.249 58.5127 20.9271 57.6894 20.2356 57.0913L19.4506 57.9989C19.8337 58.3302 20.049 58.7971 20.049 59.4863H21.249ZM20.2363 57.0919C19.5315 56.4803 18.4044 56.251 17.0431 56.251V57.451C18.3407 57.451 19.0881 57.6844 19.4499 57.9983L20.2363 57.0919ZM17.0431 56.251H13.1647V57.451H17.0431V56.251ZM12.5647 56.851V62.2372H13.7647V56.851H12.5647ZM13.1647 74H17.6431V72.8H13.1647V74ZM17.6431 74C19.1953 74 20.4421 73.7291 21.2319 73.0514L20.4504 72.1407C19.997 72.5298 19.1184 72.8 17.6431 72.8V74ZM21.2326 73.0508C21.9999 72.3903 22.3725 71.4926 22.3725 70.4314H21.1725C21.1725 71.1858 20.9216 71.7352 20.4497 72.1413L21.2326 73.0508ZM22.3725 70.4314C22.3725 69.4246 21.9954 68.5783 21.2354 67.9495L20.4704 68.874C20.9379 69.2609 21.1725 69.7597 21.1725 70.4314H22.3725ZM21.2372 67.9509C20.4528 67.2968 19.1906 67.0451 17.6255 67.0451V68.2451C19.1349 68.2451 20.0256 68.5031 20.4687 68.8726L21.2372 67.9509ZM17.6255 67.0451H13.1647V68.2451H17.6255V67.0451ZM12.5647 67.6451V73.4H13.7647V67.6451H12.5647Z" fill="black" fill-opacity="0.9" mask="url(#path-3-inside-2)"/>
<path d="M51.9627 74.8137H41.9921L40.6059 79.5079H31.6412L42.3235 51.0902H51.902L62.5765 79.5079H53.3843L51.9627 74.8137V74.8137ZM50.1392 68.6726L47.0039 58.4608L43.902 68.6726H50.1392Z" fill="#405866"/>
<path d="M41.9921 74.5137H41.7679L41.7044 74.7288L40.3817 79.2079H32.0744L42.5312 51.3902H51.6942L62.1433 79.2079H53.6069L52.2499 74.7268L51.9627 74.8137V74.5137H41.9921ZM50.1392 68.9726H50.5451L50.426 68.5845L47.2907 58.3727L47.0024 57.4337L46.7169 58.3736L43.6149 68.5854L43.4973 68.9726H43.902H50.1392Z" stroke="black" stroke-opacity="0.9" stroke-width="0.6"/>
<mask id="path-7-inside-3" fill="white">
<path d="M83.5686 67.8843L91.2647 70.2117C90.7451 72.3706 89.9314 74.1725 88.8235 75.6176C87.7417 77.0409 86.3179 78.1679 84.6843 78.8941C83.0353 79.6255 80.9432 80 78.3961 80C75.3059 80 72.7843 79.547 70.8294 78.651C68.8706 77.7549 67.1804 76.1764 65.7569 73.9157C64.3373 71.6568 63.6255 68.7647 63.6255 65.2372C63.6255 60.5392 64.8784 56.9294 67.3745 54.4039C69.8765 51.8804 73.4118 50.6157 77.9902 50.6157C81.5686 50.6157 84.3824 51.3372 86.4314 52.7843C88.4765 54.2314 90 56.4568 90.9941 59.4529L83.2412 61.1745C82.9686 60.3137 82.6863 59.6765 82.3863 59.2784C81.9197 58.625 81.3031 58.0931 80.5883 57.7274C79.8476 57.3562 79.0284 57.1692 78.2 57.1823C76.2098 57.1823 74.6863 57.9823 73.6275 59.5882C72.8235 60.7725 72.4255 62.6353 72.4255 65.1784C72.4255 68.3274 72.902 70.4882 73.8588 71.6568C74.8137 72.8294 76.1608 73.4098 77.8882 73.4098C79.5706 73.4098 80.8412 72.9372 81.6981 71.9941C82.5569 71.047 83.1804 69.6765 83.5686 67.8843"/>
</mask>
<path d="M83.5686 67.8843L91.2647 70.2117C90.7451 72.3706 89.9314 74.1725 88.8235 75.6176C87.7417 77.0409 86.3179 78.1679 84.6843 78.8941C83.0353 79.6255 80.9432 80 78.3961 80C75.3059 80 72.7843 79.547 70.8294 78.651C68.8706 77.7549 67.1804 76.1764 65.7569 73.9157C64.3373 71.6568 63.6255 68.7647 63.6255 65.2372C63.6255 60.5392 64.8784 56.9294 67.3745 54.4039C69.8765 51.8804 73.4118 50.6157 77.9902 50.6157C81.5686 50.6157 84.3824 51.3372 86.4314 52.7843C88.4765 54.2314 90 56.4568 90.9941 59.4529L83.2412 61.1745C82.9686 60.3137 82.6863 59.6765 82.3863 59.2784C81.9197 58.625 81.3031 58.0931 80.5883 57.7274C79.8476 57.3562 79.0284 57.1692 78.2 57.1823C76.2098 57.1823 74.6863 57.9823 73.6275 59.5882C72.8235 60.7725 72.4255 62.6353 72.4255 65.1784C72.4255 68.3274 72.902 70.4882 73.8588 71.6568C74.8137 72.8294 76.1608 73.4098 77.8882 73.4098C79.5706 73.4098 80.8412 72.9372 81.6981 71.9941C82.5569 71.047 83.1804 69.6765 83.5686 67.8843" fill="#405866"/>
<path d="M91.2647 70.2117L91.8481 70.3521L91.9806 69.8014L91.4384 69.6374L91.2647 70.2117ZM88.8235 75.6176L88.3474 75.2526L88.3459 75.2545L88.8235 75.6176ZM84.6843 78.8941L84.9276 79.4426L84.9281 79.4424L84.6843 78.8941ZM70.8294 78.651L71.0794 78.1055L71.079 78.1053L70.8294 78.651ZM65.7569 73.9157L65.2489 74.2349L65.2491 74.2354L65.7569 73.9157ZM67.3745 54.4039L66.9484 53.9815L66.9478 53.9821L67.3745 54.4039ZM86.4314 52.7843L86.7779 52.2945L86.7775 52.2942L86.4314 52.7843ZM90.9941 59.4529L91.1242 60.0386L91.7729 59.8946L91.5636 59.264L90.9941 59.4529ZM83.2412 61.1745L82.6692 61.3556L82.835 61.8793L83.3713 61.7602L83.2412 61.1745ZM82.3863 59.2784L81.898 59.6271L81.9025 59.6334L81.9071 59.6395L82.3863 59.2784ZM80.5883 57.7274L80.8615 57.1933L80.8571 57.1911L80.5883 57.7274ZM78.2 57.1823V57.7824L78.2095 57.7823L78.2 57.1823ZM73.6275 59.5882L74.1239 59.9252L74.1284 59.9185L73.6275 59.5882ZM73.8588 71.6568L74.3241 71.278L74.3231 71.2767L73.8588 71.6568ZM81.6981 71.9941L82.1421 72.3976L82.1425 72.3971L81.6981 71.9941ZM83.395 68.4586L91.091 70.7861L91.4384 69.6374L83.7423 67.31L83.395 68.4586ZM90.6814 70.0713C90.1772 72.1661 89.3943 73.887 88.3474 75.2526L89.2997 75.9827C90.4685 74.4581 91.313 72.575 91.8481 70.3521L90.6814 70.0713ZM88.3459 75.2545C87.3252 76.5974 85.9819 77.6607 84.4406 78.3458L84.9281 79.4424C86.654 78.6751 88.1582 77.4844 89.3012 75.9807L88.3459 75.2545ZM84.4411 78.3456C82.8919 79.0327 80.8893 79.4 78.3961 79.4V80.6C80.997 80.6 83.1787 80.2182 84.9276 79.4426L84.4411 78.3456ZM78.3961 79.4C75.3582 79.4 72.93 78.9538 71.0794 78.1055L70.5794 79.1964C72.6387 80.1403 75.2536 80.6 78.3961 80.6V79.4ZM71.079 78.1053C69.2495 77.2684 67.641 75.7818 66.2646 73.596L65.2491 74.2354C66.7198 76.5711 68.4917 78.2414 70.5798 79.1966L71.079 78.1053ZM66.2649 73.5964C64.9217 71.4592 64.2255 68.6869 64.2255 65.2372H63.0255C63.0255 68.8424 63.7528 71.8545 65.2489 74.2349L66.2649 73.5964ZM64.2255 65.2372C64.2255 60.645 65.4481 57.2066 67.8013 54.8257L66.9478 53.9821C64.3088 56.6522 63.0255 60.4334 63.0255 65.2372H64.2255ZM67.8006 54.8263C70.1602 52.4464 73.5241 51.2157 77.9902 51.2157V50.0157C73.2995 50.0157 69.5927 51.3144 66.9484 53.9815L67.8006 54.8263ZM77.9902 51.2157C81.4959 51.2157 84.1725 51.9236 86.0853 53.2744L86.7775 52.2942C84.5922 50.7509 81.6414 50.0157 77.9902 50.0157V51.2157ZM86.0848 53.2741C88.0011 54.63 89.4603 56.7355 90.4247 59.6419L91.5636 59.264C90.5397 56.1781 88.9519 53.8327 86.7779 52.2945L86.0848 53.2741ZM90.8641 58.8672L83.1111 60.5888L83.3713 61.7602L91.1242 60.0386L90.8641 58.8672ZM83.8132 60.9934C83.5355 60.1164 83.2287 59.3992 82.8654 58.9173L81.9071 59.6395C82.1439 59.9537 82.4018 60.511 82.6692 61.3556L83.8132 60.9934ZM82.8746 58.9297C82.3521 58.1982 81.6618 57.6027 80.8615 57.1933L80.315 58.2616C80.9443 58.5835 81.4872 59.0518 81.898 59.6271L82.8746 58.9297ZM80.8571 57.1911C80.0302 56.7765 79.1154 56.5677 78.1905 56.5824L78.2095 57.7823C78.9413 57.7706 79.6651 57.9358 80.3194 58.2638L80.8571 57.1911ZM78.2 56.5823C76.0171 56.5823 74.3013 57.4763 73.1266 59.2579L74.1284 59.9185C75.0713 58.4884 76.4025 57.7823 78.2 57.7823V56.5823ZM73.131 59.2512C72.2247 60.5865 71.8255 62.5978 71.8255 65.1784H73.0255C73.0255 62.6727 73.4224 60.9586 74.1239 59.9252L73.131 59.2512ZM71.8255 65.1784C71.8255 68.341 72.2944 70.6933 73.3946 72.037L74.3231 71.2767C73.5095 70.2831 73.0255 68.3139 73.0255 65.1784H71.8255ZM73.3936 72.0357C74.4809 73.3708 76.0117 74.0098 77.8882 74.0098V72.8098C76.3098 72.8098 75.1466 72.2879 74.3241 71.278L73.3936 72.0357ZM77.8882 74.0098C79.6829 74.0098 81.1383 73.5025 82.1421 72.3976L81.254 71.5906C80.5441 72.372 79.4583 72.8098 77.8882 72.8098V74.0098ZM82.1425 72.3971C83.0963 71.3454 83.7537 69.8642 84.155 68.0113L82.9822 67.7573C82.6072 69.4887 82.0175 70.7487 81.2536 71.591L82.1425 72.3971Z" fill="black" fill-opacity="0.9" mask="url(#path-7-inside-3)"/>
<mask id="path-9-inside-4" fill="white">
<path d="M95.5726 51.0882H104.351V61.8294L113.545 51.0882H125.226L114.855 61.8196L125.688 79.5059H114.871L108.884 67.8196L104.351 72.5706V79.5039H95.5726V51.0863"/>
</mask>
<path d="M95.5726 51.0882H104.351V61.8294L113.545 51.0882H125.226L114.855 61.8196L125.688 79.5059H114.871L108.884 67.8196L104.351 72.5706V79.5039H95.5726V51.0863" fill="#405866"/>
<path d="M104.351 51.0882H104.951V50.4882H104.351V51.0882ZM104.351 61.8294H103.751V63.4531L104.807 62.2196L104.351 61.8294ZM113.545 51.0882V50.4882H113.269L113.089 50.6981L113.545 51.0882ZM125.226 51.0882L125.657 51.5052L126.64 50.4882H125.226V51.0882ZM114.855 61.8196L114.423 61.4027L114.101 61.7368L114.343 62.133L114.855 61.8196ZM125.688 79.5059V80.1059H126.759L126.2 79.1925L125.688 79.5059ZM114.871 79.5059L114.337 79.7794L114.504 80.1059H114.871V79.5059ZM108.884 67.8196L109.418 67.5461L109.033 66.7944L108.45 67.4054L108.884 67.8196ZM104.351 72.5706L103.917 72.1564L103.751 72.3303V72.5706H104.351ZM104.351 79.5039V80.1039H104.951V79.5039H104.351ZM95.5726 79.5039H94.9726V80.1039H95.5726V79.5039ZM95.5726 51.6882H104.351V50.4882H95.5726V51.6882ZM103.751 51.0882V61.8294H104.951V51.0882H103.751ZM104.807 62.2196L114.001 51.4784L113.089 50.6981L103.895 61.4392L104.807 62.2196ZM113.545 51.6882H125.226V50.4882H113.545V51.6882ZM124.794 50.6713L114.423 61.4027L115.286 62.2366L125.657 51.5052L124.794 50.6713ZM114.343 62.133L125.177 79.8193L126.2 79.1925L115.367 61.5062L114.343 62.133ZM125.688 78.9059H114.871V80.1059H125.688V78.9059ZM115.405 79.2323L109.418 67.5461L108.35 68.0932L114.337 79.7794L115.405 79.2323ZM108.45 67.4054L103.917 72.1564L104.785 72.9848L109.318 68.2338L108.45 67.4054ZM103.751 72.5706V79.5039H104.951V72.5706H103.751ZM104.351 78.9039H95.5726V80.1039H104.351V78.9039ZM96.1726 79.5039V51.0863H94.9726V79.5039H96.1726Z" fill="black" fill-opacity="0.9" mask="url(#path-9-inside-4)"/>
</svg>
