<svg width="30" height="40" viewBox="0 0 30 40" fill="none" xmlns="http://www.w3.org/2000/svg">
<path d="M2.91085 0.684264L28.913 18.6831C28.9132 18.6832 28.9134 18.6833 28.9135 18.6834C29.1254 18.8314 29.2984 19.0283 29.4179 19.2574C29.5375 19.4866 29.6 19.7414 29.6 20C29.6 20.2586 29.5375 20.5134 29.4179 20.7426C29.2984 20.9717 29.1254 21.1686 28.9135 21.3166C28.9134 21.3167 28.9132 21.3168 28.913 21.3169L2.91085 39.3157C2.91082 39.3157 2.91079 39.3158 2.91076 39.3158C2.67059 39.4819 2.38951 39.5792 2.09799 39.597C1.80644 39.6148 1.51557 39.5526 1.2569 39.4169C0.998234 39.2812 0.781643 39.0774 0.630596 38.8274C0.47955 38.5775 0.399805 38.291 0.4 37.999V37.9987L0.4 1.99942C0.4 1.99938 0.4 1.99934 0.4 1.99929C0.400124 1.70745 0.480078 1.4212 0.63122 1.17153C0.782385 0.921809 0.998997 0.718192 1.25761 0.582725C1.51622 0.447257 1.80698 0.385108 2.09839 0.403007C2.38977 0.420901 2.6707 0.518146 2.91076 0.684207C2.91079 0.684226 2.91082 0.684245 2.91085 0.684264Z" fill="#985555" stroke="#A52828" stroke-width="0.8"/>
</svg>
