<svg width="343" height="211" viewBox="0 0 343 211" fill="none" xmlns="http://www.w3.org/2000/svg">
<path d="M243.038 76.7723C235.982 76.7723 229.374 79.5078 224.371 84.5073C219.391 89.5067 216.63 96.1098 216.63 103.161C216.63 110.212 219.391 116.815 224.371 121.814C229.374 126.79 235.982 129.55 243.038 129.55C250.095 129.55 256.703 126.79 261.706 121.814C266.686 116.815 269.447 110.212 269.447 103.161C269.447 96.1098 266.686 89.5067 261.706 84.5073C259.262 82.0466 256.354 80.0957 253.149 78.7678C249.944 77.44 246.508 76.7617 243.038 76.7723V76.7723ZM340.341 132.309L324.907 119.126C325.638 114.645 326.016 110.071 326.016 105.519C326.016 100.968 325.638 96.3692 324.907 91.9121L340.341 78.7296C341.507 77.7322 342.342 76.4038 342.734 74.921C343.126 73.4382 343.057 71.8713 342.536 70.4286L342.324 69.8155C338.076 57.9463 331.711 46.9443 323.538 37.3426L323.113 36.8474C322.121 35.6813 320.798 34.843 319.319 34.4431C317.841 34.0432 316.275 34.1003 314.83 34.6071L295.666 41.4224C288.586 35.6211 280.704 31.0461 272.161 27.8625L268.456 7.84112C268.176 6.33285 267.444 4.94527 266.356 3.86273C265.269 2.78019 263.877 2.05394 262.367 1.78047L261.73 1.66255C249.458 -0.554185 236.525 -0.554185 224.253 1.66255L223.616 1.78047C222.105 2.05394 220.714 2.78019 219.626 3.86273C218.539 4.94527 217.806 6.33285 217.527 7.84112L213.798 27.9568C205.336 31.1658 197.452 35.7297 190.458 41.4695L171.153 34.6071C169.708 34.0963 168.141 34.0371 166.662 34.4373C165.182 34.8374 163.859 35.678 162.869 36.8474L162.444 37.3426C154.286 46.9545 147.923 57.9537 143.659 69.8155L143.446 70.4286C142.384 73.3764 143.258 76.6779 145.641 78.7296L161.264 92.0536C160.533 96.4871 160.179 101.015 160.179 105.496C160.179 110.023 160.533 114.551 161.264 118.937L145.688 132.261C144.522 133.259 143.688 134.587 143.296 136.07C142.904 137.553 142.973 139.12 143.494 140.562L143.706 141.176C147.978 153.037 154.279 164.003 162.492 173.648L162.916 174.144C163.909 175.31 165.232 176.148 166.71 176.548C168.189 176.948 169.754 176.891 171.2 176.384L190.505 169.522C197.538 175.299 205.373 179.874 213.845 183.034L217.574 203.15C217.854 204.658 218.586 206.046 219.673 207.128C220.761 208.211 222.152 208.937 223.663 209.211L224.3 209.329C236.693 211.557 249.384 211.557 261.777 209.329L262.414 209.211C263.924 208.937 265.316 208.211 266.403 207.128C267.491 206.046 268.223 204.658 268.503 203.15L272.208 183.129C280.751 179.921 288.634 175.37 295.714 169.569L314.877 176.384C316.322 176.895 317.888 176.954 319.368 176.554C320.848 176.154 322.17 175.313 323.16 174.144L323.585 173.648C331.798 163.956 338.099 153.037 342.371 141.176L342.583 140.562C343.598 137.638 342.725 134.36 340.341 132.309ZM243.038 144.619C220.123 144.619 201.55 126.059 201.55 103.161C201.55 80.2624 220.123 61.7032 243.038 61.7032C265.954 61.7032 284.527 80.2624 284.527 103.161C284.527 126.059 265.954 144.619 243.038 144.619Z" fill="black"/>
<path d="M3.28927 112.333L102.969 181.632C104.12 182.431 105.466 182.899 106.862 182.986C108.258 183.072 109.652 182.773 110.891 182.121C112.13 181.469 113.168 180.489 113.892 179.287C114.616 178.085 115 176.707 115 175.303V36.705C115.001 35.2996 114.619 33.9207 113.895 32.7178C113.171 31.515 112.133 30.534 110.894 29.8811C109.655 29.2283 108.261 28.9286 106.864 29.0144C105.467 29.1002 104.12 29.5683 102.969 30.368L3.28927 99.6669C2.27375 100.379 1.44439 101.326 0.871722 102.429C0.299051 103.531 0 104.756 0 106C0 107.244 0.299051 108.469 0.871722 109.571C1.44439 110.674 2.27375 111.621 3.28927 112.333V112.333Z" fill="black"/>
</svg>
